<?xml version="1.0" encoding="UTF-8"?><svg id="Layer_1" xmlns="http://www.w3.org/2000/svg" viewBox="0 0 491.33 175.34"><defs><style>.cls-1{font-size:80px;}.cls-1,.cls-2{fill:#c41f55;font-family:sans-serif;font-size:53px;}.cls-3,.cls-4,.cls-5{fill-rule:evenodd;}.cls-3,.cls-6{fill:#9747FF;}.cls-7{letter-spacing:-.03em;}.cls-4{fill:#fff;}.cls-5{fill:#FFA629;}.cls-2{font-size:30px;font-family:monospace;fill:#14AE5C;}.cls-8{letter-spacing:0em;}</style></defs><text class="cls-1" transform="translate(158.48 159.31) rotate(-5.24)"><tspan class="cls-8" x="0" y="0">S</tspan><tspan x="35.83" y="0">TREE</tspan><tspan class="cls-7" x="178.57" y="0">T</tspan></text><text class="cls-2" transform="translate(2.62 34.39) rotate(-5.24)"><tspan x="0" y="0">THE</tspan></text><g><path class="cls-5" d="M72.02,123.72l80.15,13.59-67.98-6.7c-3.37-3.15-7.58-5.26-12.18-6.9Z"/><path class="cls-4" d="M79.34,125.78l40.68,6.9-35.99-3.54c-1.44-1.31-3.02-2.41-4.7-3.36Z"/><path class="cls-5" d="M149.19,141.17l-75.1,29.84c5.2-2.72,9.7-5.56,12.28-9.08l62.82-20.76Z"/><path class="cls-4" d="M114.31,153.67l-30.22,12c1.12-.92,2.13-1.91,2.96-3l27.26-9.01Z"/><path class="cls-5" d="M149.8,138.48l-46.1-3.74c.7,.67,1.17,1.47,1.28,2.46l44.82,1.28Z"/><path class="cls-5" d="M148.12,139.6l-57.44,9c.22,.74,.08,1.98-.15,2.92l57.59-11.92Z"/><polygon class="cls-5" points="102.31 126.16 103.27 127.55 136.09 133.75 102.31 126.16"/><polygon class="cls-5" points="140.71 145.86 106.87 161.94 107 160.56 140.71 145.86"/><path class="cls-5" d="M54.72,124.21c-13.64,4.8-20.83,19.8-16.06,33.51,4.78,13.71,19.71,20.93,33.35,16.13l.05-.02c-13.25,3.86-27.35-3.33-31.97-16.58-4.77-13.69,2.4-28.68,16.01-33.5-.47,.14-.93,.28-1.39,.45Z"/><path class="cls-5" d="M33.07,159.29c.99,2.61,4.28,9.19,10.87,12.76-4.1-3.38-7.35-7.9-9.23-13.29-2.5-7.17-2.13-14.65,.49-21.18-5.72,8.07-3.45,18.23-2.13,21.7Z"/><path class="cls-5" d="M49.68,163.34l1.04,1.04c2.28,2.15,5,3.82,8,4.88,2.62,.92,5.45,1.37,8.39,1.24,1.11-.05,2.19-.17,3.25-.38,3.32-.63,6.37-1.98,8.99-3.88,.24-.17,.47-.35,.7-.53,.78-.61,1.52-1.28,2.21-1.98,1.54-1.57,2.84-3.37,3.87-5.33,.61-1.16,1.12-2.38,1.53-3.65,.37-1.16,.65-2.36,.83-3.6,.2-1.39,.28-2.82,.22-4.28-.07-1.59-.3-3.13-.67-4.62-.16-.62-.34-1.23-.54-1.83-1.05-3.05-2.71-5.79-4.85-8.08l-1.06-1.06c-2.3-2.16-5.04-3.85-8.07-4.9-.59-.21-1.2-.39-1.82-.54-2.07-.53-4.25-.77-6.5-.67-.8,.03-1.58,.11-2.35,.22-1.23,.18-2.42,.46-3.58,.83-1.27,.41-2.48,.92-3.64,1.53-1.96,1.04-3.74,2.35-5.3,3.89-.71,.7-1.36,1.44-1.97,2.22-.18,.23-.36,.47-.53,.7-1.9,2.65-3.24,5.72-3.86,9.03-.31,1.67-.45,3.41-.37,5.18,.1,2.28,.53,4.47,1.24,6.52,1.05,3.02,2.71,5.74,4.84,8.02Zm-2.44-16.45c-.19-1.06-.28-2.19-.29-3.33,.55-1.6,1.31-3.07,2.24-4.37,.45-.63,.94-1.23,1.46-1.78,.2-.21,.41-.42,.62-.61,.32-.3,.66-.59,1-.87,.81-.02,1.61,0,2.39,.07,1.35,.12,2.65,.4,3.94,.9,.16,1.24,.35,2.46,.6,3.66,.04,.22,.09,.44,.14,.66,.31,1.43,.7,2.85,1.17,4.24-.1,.1-.2,.2-.3,.31-.19,.2-.38,.42-.58,.65-1.44,1.68-2.99,3.97-3.88,6-1.12-.06-2.25-.16-3.34-.33-.17-.03-.35-.06-.52-.09-1.11-.2-2.16-.48-3.06-.84-.79-1.15-1.3-2.63-1.59-4.27Zm12.44-5.75l-.03-.13c-.3-1.39-.53-2.8-.71-4.22,.69-1.06,1.59-2.08,2.69-3.01,.9-.76,1.94-1.45,3.12-2.05,.27-.14,.55-.27,.83-.4,1.32,.14,2.62,.38,3.89,.72,.14,.04,.28,.08,.42,.11,1.5,.43,2.96,1.01,4.37,1.74,.67,1.43,1.18,2.92,1.51,4.48,.25,1.21,.4,2.47,.42,3.78-.19,.17-.37,.34-.56,.51-.91,.83-1.83,1.64-2.77,2.41l-.17,.14c-1.17,.96-2.36,1.85-3.58,2.65-1.32-.46-2.64-.9-3.96-1.32-1.46-.47-2.91-.91-4.36-1.32-.44-1.33-.81-2.69-1.11-4.08Zm-5.19-10.9c-.94,.91-1.6,2.14-2.02,3.56-.17,.59-.31,1.21-.41,1.85-.36,.28-.71,.59-1.04,.9-.21,.2-.42,.4-.62,.61-.54,.56-1.04,1.17-1.5,1.82-.87,1.22-1.6,2.58-2.15,4.07-.66,.07-1.3,.18-1.72,.66,.59-3.06,1.83-5.9,3.57-8.37,.17-.24,.34-.48,.52-.71,.38-.49,.78-.97,1.2-1.43,.25-.27,.51-.54,.77-.8,.82-.81,1.7-1.55,2.64-2.22,.08,0,.16,0,.23,0,.18,0,.36,.02,.53,.04Zm9.36-3.9l-.03,.02c-.46,.3-.87,.63-1.21,.99-.67-.02-1.36,.03-2.06,.15-1.35,.22-2.71,.67-3.9,1.27-.63,.32-1.2,.68-1.7,1.07-.04,.03-.08,.06-.11,.09-.2-.04-.42-.06-.63-.08,.71-.48,1.45-.91,2.22-1.31,1.17-.6,2.41-1.09,3.7-1.47,1.18-.35,2.41-.59,3.68-.73h.05Zm15.16,4.15s.05,.09,.08,.14c.31,.59,.52,1.21,.59,1.84h-.1c-.4,0-.8,.03-1.2,.08-1.3,.17-2.56,.58-3.79,1.12-1.49-.79-3.03-1.4-4.6-1.85-.33-.09-.66-.18-1-.26-1.16-.28-2.34-.48-3.54-.6-.55-1.36-1.33-2.58-2.45-3.51,.3-.3,.66-.58,1.06-.83l.07-.05h0c.16-.1,.33-.2,.51-.3,.2-.02,.4-.03,.6-.03,2.81-.12,5.53,.31,8.03,1.19,.75,.26,1.47,.57,2.18,.91,1.26,.61,2.44,1.33,3.55,2.16Zm7.15,9.36c-.26-.16-.54-.27-.86-.35-.05-.01-.1-.02-.16-.03-.01-.05-.02-.11-.04-.16-.17-.68-.5-1.45-.93-2.21-1.11-2.01-2.86-4.01-4.14-4.55-.05-.53-.19-1.06-.4-1.56,.37,.3,.73,.61,1.08,.93,2,1.85,3.66,4.08,4.85,6.58,.21,.45,.41,.9,.59,1.37Zm-.17,16.36c-.23,.18-.47,.33-.73,.45-.46-.79-1.13-1.38-1.88-1.91,.29-1.19,.47-2.5,.52-3.79,.02-.49,.02-.98,0-1.45-.04-1.33-.23-2.56-.56-3.53-.07-.19-.14-.37-.21-.54,1.29-1.58,2.05-3.41,2.06-5.6,.26,.06,.5,.15,.71,.27,.17,.1,.33,.21,.47,.34l.02,.02,.07,.19c.68,1.96,1.1,4.06,1.19,6.24,.05,1.11,0,2.21-.11,3.29-.14,1.27-.38,2.5-.73,3.69-.23,.79-.51,1.57-.82,2.32Zm-1.06,2.17c.11-.31,.2-.62,.27-.92,.03-.15,.06-.29,.09-.44,.15-.06,.3-.14,.44-.22-.12,.27-.25,.54-.39,.8-.13,.26-.27,.52-.41,.78Zm-8.39,1.92c-1.08-.32-2.08-.71-3.02-1.15-.17-.08-.34-.16-.51-.25-.83-.42-1.61-.88-2.35-1.39-.34-.23-.67-.48-1-.73v-.26c.03-.39,.05-.79,.06-1.19,.04-1.41,.03-2.84-.05-4.25-.05-1.01-.14-2.02-.26-3.01,1.19-.79,2.36-1.66,3.5-2.6l.2-.16c.93-.77,1.85-1.58,2.77-2.41,.17-.16,.35-.32,.52-.48,2.42,.56,4.53,1.73,6.37,3.08,.47,.97,.72,2.42,.77,4.01,.01,.36,.01,.73,0,1.1-.04,1.55-.26,3.15-.65,4.54l-.04,.13c-.88,1.44-2.71,3.1-4.77,4.26-.51,.29-1.03,.54-1.56,.76Zm-11.03,9.14c.28-.14,.5-.31,.63-.45,.98,0,1.93-.09,2.85-.24,.75-.13,1.48-.3,2.19-.52,1.55-.49,2.99-1.21,4.33-2.17,.99,.06,2-.15,3.04-.61,.06-.03,.13-.06,.19-.09l-.16,.11c-2.66,1.89-5.77,3.2-9.15,3.72-.78,.12-1.57,.2-2.38,.23-.52,.02-1.04,.02-1.55,0Zm-5.67-3.75c.39-1.67,.74-3.36,1.08-5.06l.17-.84c3.05-.35,5.75-1.23,8.49-2.63,.7,.53,1.43,1.03,2.21,1.48,.35,.2,.7,.4,1.07,.58,.44,.22,.89,.43,1.36,.62,.74,.31,1.51,.59,2.33,.83,.02,.47,0,.95-.06,1.45-.04,.35-.11,.69-.19,1.05-.2,.87-.53,1.75-.97,2.6-1.31,.93-2.72,1.64-4.24,2.12-.77,.24-1.57,.43-2.39,.55-.98,.15-2.01,.21-3.07,.19-2.71-.54-4.95-1.83-5.78-2.94Zm-10.15-4.75c-.47-.64-.88-1.31-1.24-2-.43-.84-.78-1.71-1.06-2.64-.01-1.91,.62-4,1.41-4.78,.9,.35,1.94,.62,3.03,.82,.33,.06,.66,.11,.99,.16,.96,.14,1.95,.22,2.92,.27,1.07,2.6,2.84,5.03,5,6.87l-.14,.69c-.36,1.8-.72,3.59-1.13,5.34-1.19,.45-2.89,.4-4.43-.1-.3-.1-.59-.21-.87-.34-1.89-1.34-3.36-2.75-4.49-4.29Zm-2.9-3.67c-.28-.58-.54-1.17-.76-1.78,.33,.46,.7,.87,1.12,1.21,.16,.51,.35,1.01,.56,1.49,.45,1.04,1.01,2.02,1.7,2.96,.96,1.31,2.17,2.53,3.67,3.7,.02,.06,.04,.13,.06,.2-.54-.41-1.05-.84-1.55-1.3-1.98-1.82-3.61-4.02-4.8-6.48Z"/></g><path class="cls-3" d="M126.21,63.08c-1.34-2.77-3.09-5.39-5.28-7.76-1.7-1.85-3.57-3.45-5.55-4.81-3.94-2.69-8.36-4.41-12.91-5.14-.41-.07-.82-.12-1.23-.17-1.39-.17-2.8-.25-4.2-.24-3.11,.03-6.21,.5-9.22,1.43-1.77,.55-3.51,1.26-5.19,2.12-1.53,.79-3.01,1.71-4.43,2.76-.89,.66-1.75,1.37-2.58,2.14-2.35,2.16-4.3,4.59-5.86,7.2-.46,.78-.89,1.57-1.28,2.37-1.99,4.09-3.07,8.53-3.21,13.01v2.12c.15,4.44,1.22,8.86,3.21,12.95,.39,.8,.82,1.6,1.28,2.37,1.11,1.86,2.42,3.63,3.95,5.29,1.39,1.52,2.9,2.87,4.5,4.05,1.41,1.05,2.89,1.97,4.43,2.76,1.68,.86,3.41,1.57,5.19,2.12,2.99,.93,6.1,1.41,9.22,1.43,1.4,.01,2.81-.06,4.2-.24,.41-.05,.82-.11,1.23-.18,4.54-.73,8.95-2.44,12.91-5.15,1.26-.86,2.48-1.82,3.64-2.89,3.08-2.83,5.48-6.12,7.19-9.67,1.96-4.07,3.02-8.48,3.16-12.92v-2.08c-.14-4.41-1.19-8.8-3.16-12.88Zm-8.16-.14c-.54,1.27-1.32,2.6-2.24,3.91-.14,.2-.29,.4-.43,.61-.92,1.26-1.95,2.51-3.02,3.69-2.92-1.14-6.77-1.87-9.89-2.1-.43-.03-.84-.05-1.23-.07-.21,0-.41-.01-.61-.01-.93-1.86-1.95-3.66-3.07-5.41-.17-.27-.35-.54-.52-.8-.96-1.45-1.98-2.87-3.06-4.26,.8-1.79,1.83-3.38,3.06-4.86,.71-.86,1.49-1.67,2.33-2.47,.62-.07,1.24-.12,1.87-.14,.41-.01,.82-.02,1.23,0,1.08,.02,2.16,.12,3.25,.3,2.23,.37,4.47,1.07,6.63,2.12,1.13,1.16,2.17,2.38,3.04,3.63,1.35,1.93,2.31,3.93,2.67,5.87Zm-17.96,6.07c-1.04,1.88-2.06,3.78-3.06,5.71-.9,1.75-1.79,3.52-2.66,5.31-2.03,.43-4.12,.73-6.25,.95l-.31,.03c-1.71,.17-3.44,.29-5.19,.37-.36,.02-.71,.03-1.07,.05-1.29-1.33-2.4-2.73-3.36-4.2-1.23-1.89-2.21-3.89-2.96-5.99,.69-2.16,1.58-4.2,2.66-6.13,.1-.18,.2-.36,.3-.53,.93-1.62,2-3.16,3.19-4.63,.42-.16,.83-.3,1.23-.44,1.79-.58,3.53-.94,5.19-1.09,2.03-.18,3.95-.07,5.71,.3,1.24,1.6,2.42,3.24,3.51,4.94l.1,.16c1.08,1.68,2.07,3.41,2.96,5.19Zm-8.15-21.88c.08-.08,.15-.16,.23-.24,1.61-.27,3.24-.42,4.86-.43,.52,0,1.05,0,1.58,.03,.88,.04,1.76,.11,2.63,.23,.41,.05,.83,.11,1.23,.18,4.21,.72,8.29,2.31,11.95,4.78-.91-.06-1.66,.47-2.4,1.07-2.03-.93-4.13-1.56-6.22-1.91-1.11-.18-2.23-.29-3.33-.31-.41,0-.83,0-1.23,0-.66,.02-1.31,.07-1.95,.15-.74-.54-1.49-1.03-2.25-1.44-1.84-1-3.73-1.56-5.59-1.53,.15-.2,.32-.39,.49-.58Zm-13.74,6.04c1.41-1.13,2.89-2.12,4.43-2.96,1.67-.92,3.41-1.67,5.19-2.25,1.16-.38,2.35-.69,3.54-.92-.2,.23-.39,.47-.56,.71-.06,0-.13,.01-.2,.02-.89,.11-1.83,.33-2.78,.64-1.79,.59-3.61,1.5-5.19,2.64-.82,.59-1.57,1.24-2.22,1.93-.7-.02-1.44,.06-2.21,.22h-.05s.05-.03,.05-.03Zm-9.72,13.71c.37-1.05,.8-2.09,1.28-3.1,1.63-3.4,3.93-6.55,6.87-9.26,.21-.19,.42-.38,.63-.57,.27-.08,.54-.15,.81-.21h0s.12-.03,.12-.03c.66-.14,1.3-.23,1.9-.24-.19,2.06,.25,4.06,1.06,5.97-1.09,1.33-2.07,2.71-2.96,4.16-.26,.42-.5,.84-.74,1.27-1.13,2.04-2.06,4.19-2.77,6.48-1.77,.7-3.45,1.54-4.93,2.68-.45,.35-.87,.72-1.28,1.12l-.1,.1c-.55-.7-.97-1.54-1.25-2.43-.02-.07-.04-.14-.06-.21,.28-1.94,.75-3.86,1.41-5.73Zm0,20.31c-1.3-3.7-1.86-7.59-1.7-11.45,.03-.67,.08-1.34,.15-2.01,.29,.72,.68,1.39,1.16,1.96-.74,1.83-.5,5.59,.39,8.71,.34,1.19,.77,2.28,1.28,3.14,.04,.07,.08,.14,.13,.2-.04,.06-.09,.13-.13,.19-.24,.39-.41,.79-.51,1.21-.28-.65-.54-1.3-.77-1.96Zm14.15,16.66c-1.54-.84-3.02-1.83-4.43-2.96-1.19-.96-2.33-2.02-3.39-3.18-2.09-2.27-3.77-4.78-5.05-7.43l-.12-.26v-.04c0-.27,.05-.55,.12-.81,.1-.34,.24-.67,.44-.99,2.2,2.18,4.8,3.24,7.67,3.53,.09,.25,.2,.5,.33,.75,.63,1.3,1.69,2.72,2.97,4.08,.46,.49,.95,.98,1.46,1.45,1.34,1.23,2.83,2.37,4.31,3.27-.23,1.28-.31,2.55,.02,3.8-.38,.14-.78,.23-1.18,.28-1.07-.44-2.12-.93-3.15-1.49Zm5.19,2.24c-.4-.13-.8-.27-1.19-.41,.22-.06,.44-.13,.66-.22,.17,.12,.35,.24,.53,.35,.37,.23,.77,.45,1.19,.64-.4-.11-.8-.23-1.19-.36Zm9.22-5.34c-3.24,.92-6.73,1.09-9.05,.54l-.16-.09c-1.78-1-3.6-2.38-5.19-3.89-.38-.36-.75-.73-1.1-1.11-1.53-1.64-2.73-3.34-3.23-4.78,.5-3.2,1.45-6.49,3.32-9.48,.33-.01,.67-.03,1-.04,1.75-.09,3.48-.2,5.19-.37l.36-.04c2.08-.22,4.13-.51,6.11-.92,.87,1.11,1.79,2.21,2.74,3.27,1.34,1.49,2.75,2.93,4.2,4.3,.41,.39,.82,.77,1.23,1.14l.28,.25c-.07,.57-.17,1.15-.28,1.73-.24,1.24-.55,2.49-.97,3.74-.08,.25-.17,.51-.26,.76-.5,1.39-1.12,2.78-1.88,4.19-.75,.32-1.53,.59-2.32,.81Zm20.97-1.21c-.85,.78-1.72,1.5-2.63,2.16-3.92,2.87-8.35,4.69-12.91,5.47l-.28,.05c.09-.03,.18-.07,.28-.1,1.5-.59,2.73-1.4,3.67-2.45,2.29-.39,4.47-1.12,6.51-2.18,.94-.49,1.85-1.05,2.73-1.68,1.07-.77,2.11-1.64,3.1-2.62,.28,0,.67-.04,1.09-.18-.5,.53-1.02,1.05-1.57,1.55Zm.65-2.25c-1.05,1.09-2.14,2.05-3.28,2.89-.96,.7-1.94,1.32-2.96,1.85-2,1.05-4.13,1.76-6.38,2.14-1.29-.41-2.5-.96-3.57-1.63-.43-.27-.85-.56-1.23-.86-.56-.44-1.06-.9-1.51-1.39,.58-1.06,1.08-2.11,1.51-3.16,.27-.66,.52-1.33,.74-1.99,.18-.55,.35-1.1,.5-1.66,.33-1.24,.58-2.47,.74-3.7,4.15-1.35,7.75-3.18,11.16-5.9l1.01,.67c2.04,1.36,4.08,2.7,6.14,3.98,.27,1.95-.68,5.48-2.86,8.75Zm8.09-14.89c-.15,.41-.34,.82-.54,1.21-1.05,2.05-2.71,3.8-4.35,4.55-2.16-1.34-4.31-2.76-6.48-4.2l-.82-.55c.33-4.02-.33-8.22-1.85-11.9,.93-1.02,1.84-2.1,2.67-3.21,.29-.38,.57-.77,.84-1.16,.9-1.3,1.67-2.61,2.23-3.86,1.57-.02,4.29,1.44,6.19,3.36,.64,1.21,1.17,2.43,1.57,3.7,.33,1.05,.59,2.13,.76,3.25,.41,2.67,.33,5.56-.22,8.8Zm1.11-4.08c-.04,.96-.12,1.91-.25,2.85-.04-.09-.09-.18-.13-.26,.34-2.67,.33-5.11-.01-7.39-.25-1.62-.66-3.17-1.25-4.67-.28-.69-.58-1.38-.93-2.06,.09-.76,.05-1.54-.08-2.33,.38,.84,.71,1.69,1.01,2.55,1.26,3.65,1.81,7.49,1.65,11.3Z"/><path class="cls-3" d="M199.92,56.23c-1.34-2.77-3.09-5.39-5.28-7.76-1.7-1.85-3.57-3.45-5.55-4.81-3.94-2.69-8.36-4.41-12.91-5.14-.41-.07-.82-.12-1.23-.17-1.39-.17-2.8-.25-4.2-.24-3.11,.03-6.21,.5-9.22,1.43-1.77,.55-3.51,1.26-5.19,2.12-1.53,.79-3.01,1.71-4.43,2.76-.89,.66-1.75,1.37-2.58,2.14-2.35,2.16-4.3,4.59-5.86,7.2-.46,.78-.89,1.57-1.28,2.37-1.99,4.09-3.07,8.53-3.21,13.01v2.12c.15,4.44,1.22,8.86,3.21,12.95,.39,.8,.82,1.6,1.28,2.37,1.11,1.86,2.42,3.63,3.95,5.29,1.39,1.52,2.9,2.87,4.5,4.05,1.41,1.05,2.89,1.97,4.43,2.76,1.68,.86,3.41,1.57,5.19,2.12,2.99,.93,6.1,1.41,9.22,1.43,1.4,.01,2.81-.06,4.2-.24,.41-.05,.82-.11,1.23-.18,4.54-.73,8.95-2.44,12.91-5.15,1.26-.86,2.48-1.82,3.64-2.89,3.08-2.83,5.48-6.12,7.19-9.67,1.96-4.07,3.02-8.48,3.16-12.92v-2.08c-.14-4.41-1.19-8.8-3.16-12.88Zm-8.16-.14c-.54,1.27-1.32,2.6-2.24,3.91-.14,.2-.29,.4-.43,.61-.92,1.26-1.95,2.51-3.02,3.69-2.92-1.14-6.77-1.87-9.89-2.1-.43-.03-.84-.05-1.23-.07-.21,0-.41-.01-.61-.01-.93-1.86-1.95-3.66-3.07-5.41-.17-.27-.35-.54-.52-.8-.96-1.45-1.98-2.87-3.06-4.26,.8-1.79,1.83-3.38,3.06-4.86,.71-.86,1.49-1.67,2.33-2.47,.62-.07,1.24-.12,1.87-.14,.41-.01,.82-.02,1.23,0,1.08,.02,2.16,.12,3.25,.3,2.23,.37,4.47,1.07,6.63,2.12,1.13,1.16,2.17,2.38,3.04,3.63,1.35,1.93,2.31,3.93,2.67,5.87Zm-17.96,6.07c-1.04,1.88-2.06,3.78-3.06,5.71-.9,1.75-1.79,3.52-2.66,5.31-2.03,.43-4.12,.73-6.25,.95l-.31,.03c-1.71,.17-3.44,.29-5.19,.37-.36,.02-.71,.03-1.07,.05-1.29-1.33-2.4-2.73-3.36-4.2-1.23-1.89-2.21-3.89-2.96-5.99,.69-2.16,1.58-4.2,2.66-6.13,.1-.18,.2-.36,.3-.53,.93-1.62,2-3.16,3.19-4.63,.42-.16,.83-.3,1.23-.44,1.79-.58,3.53-.94,5.19-1.09,2.03-.18,3.95-.07,5.71,.3,1.24,1.6,2.42,3.24,3.51,4.94l.1,.16c1.08,1.68,2.07,3.41,2.96,5.19Zm-8.15-21.88c.08-.08,.15-.16,.23-.24,1.61-.27,3.24-.42,4.86-.43,.52,0,1.05,0,1.58,.03,.88,.04,1.76,.11,2.63,.23,.41,.05,.83,.11,1.23,.18,4.21,.72,8.29,2.31,11.95,4.78-.91-.06-1.66,.47-2.4,1.07-2.03-.93-4.13-1.56-6.22-1.91-1.11-.18-2.23-.29-3.33-.31-.41,0-.83,0-1.23,0-.66,.02-1.31,.07-1.95,.15-.74-.54-1.49-1.03-2.25-1.44-1.84-1-3.73-1.56-5.59-1.53,.15-.2,.32-.39,.49-.58Zm-13.74,6.04c1.41-1.13,2.89-2.12,4.43-2.96,1.67-.92,3.41-1.67,5.19-2.25,1.16-.38,2.35-.69,3.54-.92-.2,.23-.39,.47-.56,.71-.06,0-.13,.01-.2,.02-.89,.11-1.83,.33-2.78,.64-1.79,.59-3.61,1.5-5.19,2.64-.82,.59-1.57,1.24-2.22,1.93-.7-.02-1.44,.06-2.21,.22h-.05s.05-.03,.05-.03Zm-9.72,13.71c.37-1.05,.8-2.09,1.28-3.1,1.63-3.4,3.93-6.55,6.87-9.26,.21-.19,.42-.38,.63-.57,.27-.08,.54-.15,.81-.21h0s.12-.03,.12-.03c.66-.14,1.3-.23,1.9-.24-.19,2.06,.25,4.06,1.06,5.97-1.09,1.33-2.07,2.71-2.96,4.16-.26,.42-.5,.84-.74,1.27-1.13,2.04-2.06,4.19-2.77,6.48-1.77,.7-3.45,1.54-4.93,2.68-.45,.35-.87,.72-1.28,1.12l-.1,.1c-.55-.7-.97-1.54-1.25-2.43-.02-.07-.04-.14-.06-.21,.28-1.94,.75-3.86,1.41-5.73Zm0,20.31c-1.3-3.7-1.86-7.59-1.7-11.45,.03-.67,.08-1.34,.15-2.01,.29,.72,.68,1.39,1.16,1.96-.74,1.83-.5,5.59,.39,8.71,.34,1.19,.77,2.28,1.28,3.14,.04,.07,.08,.14,.13,.2-.04,.06-.09,.13-.13,.19-.24,.39-.41,.79-.51,1.21-.28-.65-.54-1.3-.77-1.96Zm14.15,16.66c-1.54-.84-3.02-1.83-4.43-2.96-1.19-.96-2.33-2.02-3.39-3.18-2.09-2.27-3.77-4.78-5.05-7.43l-.12-.26v-.04c0-.27,.05-.55,.12-.81,.1-.34,.24-.67,.44-.99,2.2,2.18,4.8,3.24,7.67,3.53,.09,.25,.2,.5,.33,.75,.63,1.3,1.69,2.72,2.97,4.08,.46,.49,.95,.98,1.46,1.45,1.34,1.23,2.83,2.37,4.31,3.27-.23,1.28-.31,2.55,.02,3.8-.38,.14-.78,.23-1.18,.28-1.07-.44-2.12-.93-3.15-1.49Zm5.19,2.24c-.4-.13-.8-.27-1.19-.41,.22-.06,.44-.13,.66-.22,.17,.12,.35,.24,.53,.35,.37,.23,.77,.45,1.19,.64-.4-.11-.8-.23-1.19-.36Zm9.22-5.34c-3.24,.92-6.73,1.09-9.05,.54l-.16-.09c-1.78-1-3.6-2.38-5.19-3.89-.38-.36-.75-.73-1.1-1.11-1.53-1.64-2.73-3.34-3.23-4.78,.5-3.2,1.45-6.49,3.32-9.48,.33-.01,.67-.03,1-.04,1.75-.09,3.48-.2,5.19-.37l.36-.04c2.08-.22,4.13-.51,6.11-.92,.87,1.11,1.79,2.21,2.74,3.27,1.34,1.49,2.75,2.93,4.2,4.3,.41,.39,.82,.77,1.23,1.14l.28,.25c-.07,.57-.17,1.15-.28,1.73-.24,1.24-.55,2.49-.97,3.74-.08,.25-.17,.51-.26,.76-.5,1.39-1.12,2.78-1.88,4.19-.75,.32-1.53,.59-2.32,.81Zm20.97-1.21c-.85,.78-1.72,1.5-2.63,2.16-3.92,2.87-8.35,4.69-12.91,5.47l-.28,.05c.09-.03,.18-.07,.28-.1,1.5-.59,2.73-1.4,3.67-2.45,2.29-.39,4.47-1.12,6.51-2.18,.94-.49,1.85-1.05,2.73-1.68,1.07-.77,2.11-1.64,3.1-2.62,.28,0,.67-.04,1.09-.18-.5,.53-1.02,1.05-1.57,1.55Zm.65-2.25c-1.05,1.09-2.14,2.05-3.28,2.89-.96,.7-1.94,1.32-2.96,1.85-2,1.05-4.13,1.76-6.38,2.14-1.29-.41-2.5-.96-3.57-1.63-.43-.27-.85-.56-1.23-.86-.56-.44-1.06-.9-1.51-1.39,.58-1.06,1.08-2.11,1.51-3.16,.27-.66,.52-1.33,.74-1.99,.18-.55,.35-1.1,.5-1.66,.33-1.24,.58-2.47,.74-3.7,4.15-1.35,7.75-3.18,11.16-5.9l1.01,.67c2.04,1.36,4.08,2.7,6.14,3.98,.27,1.95-.68,5.48-2.86,8.75Zm8.09-14.89c-.15,.41-.34,.82-.54,1.21-1.05,2.05-2.71,3.8-4.35,4.55-2.16-1.34-4.31-2.76-6.48-4.2l-.82-.55c.33-4.02-.33-8.22-1.85-11.9,.93-1.02,1.84-2.1,2.67-3.21,.29-.38,.57-.77,.84-1.16,.9-1.3,1.67-2.61,2.23-3.86,1.57-.02,4.29,1.44,6.19,3.36,.64,1.21,1.17,2.43,1.57,3.7,.33,1.05,.59,2.13,.76,3.25,.41,2.67,.33,5.56-.22,8.8Zm1.11-4.08c-.04,.96-.12,1.91-.25,2.85-.04-.09-.09-.18-.13-.26,.34-2.67,.33-5.11-.01-7.39-.25-1.62-.66-3.17-1.25-4.67-.28-.69-.58-1.38-.93-2.06,.09-.76,.05-1.54-.08-2.33,.38,.84,.71,1.69,1.01,2.55,1.26,3.65,1.81,7.49,1.65,11.3Z"/><g><path class="cls-6" d="M12.9,52.07l43.17-3.96,.93,10.12-33.05,3.03,1.44,15.66-10.12,.93-2.36-25.78Zm3.32,36.17l10.12-.93,2.62,28.55-10.12,.93-2.62-28.55Zm20.85-2l-.93-10.12,18.95-1.74,.93,10.12-18.95,1.74Z"/><path class="cls-6" d="M234.72,54.32h.09s3.87,42.13,3.87,42.13l-10.12,.93-5.01-54.6-20.08,1.84-.93-10.12,30.11-2.76,2.07,22.58Zm7.01-23.42l11.07-1.02,.93,10.12-11.08,1.02-.93-10.12Z"/><path class="cls-6" d="M303.46,57.09c2.3,1.59,4.21,3.58,5.74,5.97,1.53,2.39,2.44,5.14,2.72,8.26,.23,2.54-.05,4.98-.86,7.32-.81,2.34-1.98,4.43-3.53,6.26-1.55,1.83-3.42,3.34-5.62,4.53-2.19,1.19-4.56,1.9-7.1,2.13l-28.78,2.64-2.31-25.18-.16-1.73-3.48-37.9,26.56-2.44c2.59-.24,5.06,.05,7.41,.85,2.34,.8,4.44,1.98,6.3,3.52,1.86,1.55,3.38,3.41,4.57,5.6,1.19,2.19,1.9,4.58,2.14,7.18,.22,2.42,.01,4.74-.63,6.95-.64,2.21-1.63,4.22-2.98,6.03Zm-9.6,24.35c1.15-.11,2.24-.42,3.26-.95,1.02-.53,1.9-1.22,2.64-2.07,.73-.85,1.28-1.81,1.65-2.89,.36-1.08,.5-2.19,.39-3.34-.11-1.21-.45-2.32-1-3.34-.56-1.02-1.28-1.91-2.16-2.67-.89-.76-1.88-1.32-2.99-1.68s-2.24-.49-3.4-.38l-9.95,.91-.93-10.12,7.79-.71c1.21-.11,2.32-.43,3.31-.95,1-.52,1.85-1.2,2.56-2.02,.71-.82,1.24-1.76,1.57-2.84,.34-1.07,.45-2.21,.34-3.42-.11-1.2-.43-2.32-.96-3.34-.53-1.02-1.22-1.9-2.07-2.63-.85-.73-1.81-1.29-2.89-1.69-1.08-.39-2.22-.53-3.43-.42l-16.47,1.51,2.56,27.89,.16,1.73,1.39,15.11,18.63-1.71Z"/><path class="cls-6" d="M376.94,83.85l-11.07,1.02-7.34-13.37-16.4-30.43-7.37,22.4-8.18,25.01-10.9,1,21.94-67.1,5.62-.52,33.69,62Z"/><path class="cls-6" d="M392.19,72.24l-10.12,.93-5-54.51,10.12-.93,5,54.51Zm8.83-.81l25.61-2.35,.93,10.12-25.61,2.35-.93-10.12Z"/><path class="cls-6" d="M446.87,67.23l-10.12,.93-5-54.51,10.12-.93,5,54.51Zm8.83-.81l25.61-2.35,.93,10.12-25.61,2.35-.93-10.12Z"/></g><g><path class="cls-5" d="M445.81,89.85l-75.84,29.29,65.28-20.11c2.68-3.76,6.38-6.66,10.56-9.19Z"/><path class="cls-4" d="M439.04,93.33l-38.49,14.87,34.56-10.64c1.15-1.57,2.48-2.96,3.93-4.22Z"/><path class="cls-5" d="M373.66,122.33l79.54,14.27c-5.64-1.63-10.61-3.51-13.84-6.45l-65.7-7.82Z"/><path class="cls-4" d="M410.34,127.63l32,5.74c-1.28-.68-2.47-1.45-3.5-2.35l-28.51-3.39Z"/><path class="cls-5" d="M372.53,119.82l44.43-12.85c-.55,.8-.85,1.68-.77,2.67l-43.67,10.18Z"/><path class="cls-5" d="M374.4,120.58l58.09-2.63c-.06,.77,.31,1.96,.73,2.83l-58.81-.21Z"/><polygon class="cls-5" points="416.62 98.28 415.95 99.83 385.03 112.45 416.62 98.28"/><polygon class="cls-5" points="382.91 125.24 419.27 134.25 418.87 132.92 382.91 125.24"/><path class="cls-5" d="M462.86,86.89c14.32,1.98,24.36,15.26,22.41,29.64-1.95,14.38-15.14,24.44-29.47,22.46h-.05c13.76,1.13,26.14-8.72,28.02-22.62,1.94-14.37-8.07-27.63-22.37-29.63,.48,.04,.97,.09,1.45,.16Z"/><path class="cls-5" d="M491.07,116.95c-.45,2.75-2.36,9.86-8.11,14.68,3.34-4.13,5.63-9.2,6.4-14.86,1.02-7.52-.83-14.78-4.7-20.65,7.21,6.77,7.02,17.17,6.41,20.84Z"/><path class="cls-5" d="M478.74,115.4c.29-2.15,.28-4.38-.09-6.64-.28-1.75-.76-3.43-1.4-5-1.27-3.12-3.2-5.86-5.59-8.08-.21-.2-.44-.39-.66-.58-.75-.65-1.55-1.24-2.38-1.78-1.84-1.2-3.85-2.13-5.97-2.76-1.26-.37-2.55-.63-3.87-.78-1.2-.13-2.43-.17-3.67-.1-.78,.04-1.56,.12-2.35,.25-2.22,.35-4.31,1.02-6.24,1.95-.57,.28-1.13,.57-1.67,.9-2.76,1.63-5.11,3.83-6.93,6.41l-.82,1.25c-1.63,2.67-2.72,5.69-3.14,8.89-.08,.63-.14,1.26-.17,1.9-.07,1.53,.01,3.09,.27,4.66,.23,1.44,.59,2.82,1.07,4.15,.42,1.17,.93,2.29,1.53,3.36,.65,1.16,1.4,2.26,2.23,3.28,1.4,1.72,3.04,3.21,4.86,4.45,.82,.56,1.67,1.06,2.56,1.5,.26,.13,.53,.26,.79,.38,2.95,1.34,6.21,2.06,9.58,2.01,1.08-.01,2.17-.11,3.26-.28,2.91-.46,5.59-1.47,7.98-2.89,2.73-1.63,5.06-3.82,6.87-6.38l.81-1.23c1.63-2.66,2.71-5.65,3.14-8.82Zm-4.74-3.28c-.81,.53-1.78,1.01-2.83,1.43-.16,.06-.32,.13-.49,.19-1.03,.39-2.12,.72-3.2,.99-1.28-1.81-3.25-3.75-4.99-5.11-.24-.19-.47-.36-.7-.52-.12-.09-.24-.17-.35-.25,.18-1.46,.27-2.92,.3-4.39,0-.23,0-.45,0-.68,0-1.23-.05-2.47-.14-3.71,1.17-.74,2.39-1.28,3.68-1.66,.75-.22,1.53-.4,2.33-.54,.39,.2,.77,.42,1.15,.65,.25,.15,.49,.31,.73,.48,.62,.44,1.22,.92,1.79,1.45,1.17,1.09,2.21,2.38,3.07,3.84,.22,1.12,.35,2.25,.38,3.32,.04,1.67-.17,3.22-.71,4.5Zm-12.9-3.44c-1.34,.7-2.68,1.42-4.01,2.17-1.21,.68-2.42,1.37-3.62,2.09-1.36-.54-2.7-1.18-4.04-1.88l-.19-.1c-1.07-.57-2.13-1.18-3.19-1.81-.22-.13-.43-.26-.65-.39-.24-1.29-.35-2.55-.34-3.78,0-1.6,.21-3.15,.59-4.69,1.24-1,2.56-1.86,3.94-2.58,.13-.07,.26-.13,.39-.2,1.18-.59,2.4-1.08,3.67-1.48,.31,.07,.6,.14,.89,.23,1.28,.36,2.44,.83,3.47,1.39,1.27,.69,2.35,1.51,3.24,2.41,.11,1.43,.16,2.86,.14,4.28v.13c-.02,1.41-.11,2.82-.28,4.21Zm3.7-16.08c.08-.02,.15-.04,.23-.05,1.05,.47,2.06,1.02,3.03,1.65,.31,.2,.62,.41,.92,.63,.5,.36,.99,.75,1.46,1.16,.22,.19,.44,.39,.65,.59,2.19,2.07,3.97,4.61,5.16,7.49-.51-.39-1.16-.37-1.82-.31-.83-1.34-1.82-2.53-2.91-3.56-.58-.54-1.2-1.04-1.83-1.48-.24-.17-.48-.33-.73-.48-.39-.24-.79-.47-1.2-.68-.22-.61-.48-1.19-.77-1.73-.7-1.31-1.59-2.38-2.69-3.08,.17-.06,.34-.11,.51-.15Zm-10.41-1.81c1.27-.12,2.52-.12,3.75-.01,1.34,.11,2.65,.35,3.92,.7,.83,.23,1.64,.51,2.44,.84-.21,.06-.41,.12-.6,.2-.04-.02-.08-.04-.12-.06-.57-.28-1.2-.52-1.88-.71-1.28-.35-2.71-.53-4.07-.47-.71,.03-1.4,.12-2.05,.27-.4-.28-.87-.53-1.38-.73l-.04-.02h.05Zm-11.03,4.27c.62-.48,1.28-.92,1.96-1.33,2.28-1.37,4.85-2.33,7.63-2.77,.2-.03,.39-.06,.59-.09,.19,.06,.38,.12,.56,.19h0s.08,.03,.08,.03c.44,.17,.85,.37,1.21,.6-.91,1.14-1.43,2.49-1.7,3.93-1.15,.36-2.27,.79-3.35,1.29-.31,.15-.62,.3-.93,.46-1.46,.76-2.84,1.66-4.14,2.73-1.31-.28-2.62-.44-3.94-.34-.4,.03-.79,.08-1.19,.16l-.1,.02c-.05-.63,.03-1.28,.21-1.92,.02-.05,.03-.1,.05-.15,.92-1.03,1.94-1.98,3.05-2.83Zm-7.88,11.97c.67-2.69,1.85-5.2,3.44-7.41,.28-.39,.57-.76,.87-1.13-.11,.54-.14,1.08-.08,1.61-1.15,.79-2.47,3.1-3.15,5.29-.26,.83-.43,1.65-.47,2.35,0,.06,0,.11,0,.17-.05,.02-.1,.04-.15,.06-.29,.14-.55,.31-.77,.51,.09-.49,.19-.98,.31-1.46Zm1.85,15.35c-.58-1.1-1.07-2.26-1.45-3.47-.33-1.03-.58-2.1-.76-3.2-.34-2.16-.36-4.29-.08-6.35l.03-.2,.02-.02c.11-.16,.24-.3,.39-.43,.19-.16,.4-.3,.64-.41,.45,2.14,1.56,3.78,3.14,5.08-.04,.18-.07,.37-.1,.57-.13,1.01-.06,2.26,.16,3.57,.08,.47,.18,.95,.29,1.42,.31,1.25,.74,2.5,1.26,3.61-.63,.67-1.17,1.38-1.47,2.25-.28-.07-.55-.17-.8-.3-.46-.68-.88-1.38-1.27-2.11Zm2.18,3.35c-.19-.23-.36-.47-.54-.71,.15,.05,.31,.1,.47,.13,.06,.14,.11,.28,.18,.42,.13,.28,.28,.56,.45,.84-.19-.22-.38-.45-.56-.68Zm7.49,.46c-2.26-.73-4.38-1.99-5.53-3.22l-.06-.12c-.66-1.28-1.19-2.81-1.54-4.32-.08-.36-.15-.72-.21-1.08-.27-1.57-.3-3.03-.04-4.08,1.54-1.69,3.37-3.26,5.63-4.29,.2,.12,.4,.24,.61,.37,1.06,.63,2.13,1.24,3.19,1.81l.23,.12c1.31,.69,2.62,1.31,3.95,1.85,.08,.99,.19,2,.34,3,.21,1.4,.48,2.8,.8,4.17,.09,.39,.19,.77,.28,1.15l.07,.25c-.27,.31-.54,.61-.83,.91-.62,.64-1.29,1.25-2.02,1.83-.15,.12-.3,.23-.45,.35-.83,.62-1.74,1.2-2.73,1.73-.56-.11-1.12-.25-1.68-.43Zm12.79,7.49c-.8,.13-1.59,.21-2.38,.25-3.42,.16-6.72-.5-9.7-1.83l-.18-.08c.07,.02,.13,.03,.2,.05,1.11,.24,2.15,.24,3.1,0,1.5,.67,3.06,1.09,4.67,1.26,.74,.08,1.49,.1,2.25,.08,.93-.03,1.88-.14,2.84-.33,.16,.11,.41,.24,.71,.32-.5,.12-1.01,.22-1.52,.3Zm1.26-1.07c-1.04,.23-2.05,.37-3.05,.42-.83,.04-1.65,.02-2.46-.06-1.58-.17-3.11-.58-4.58-1.23-.6-.74-1.1-1.55-1.47-2.36-.15-.33-.28-.66-.39-.99-.16-.48-.27-.95-.35-1.41,.75-.4,1.45-.82,2.11-1.27,.42-.28,.82-.58,1.21-.88,.32-.25,.63-.52,.93-.78,.67-.6,1.3-1.23,1.87-1.89,2.96,.83,5.79,1.16,8.85,.89l.33,.79c.67,1.6,1.35,3.19,2.06,4.75-.6,1.25-2.52,2.97-5.08,4.03Zm10.53-5.61c-.25,.18-.51,.35-.79,.5-1.41,.79-3.07,1.18-4.32,.98-.75-1.64-1.46-3.31-2.17-5.01l-.27-.65c1.75-2.24,3-4.97,3.53-7.73,.95-.24,1.9-.52,2.81-.85,.32-.11,.63-.23,.94-.35,1.03-.41,1.99-.88,2.81-1.4,.93,.6,1.96,2.52,2.33,4.4-.09,.96-.26,1.89-.51,2.79-.21,.75-.48,1.49-.82,2.21-.8,1.73-1.96,3.41-3.54,5.1Zm2.24-1.97c-.39,.55-.81,1.08-1.26,1.58,.01-.07,.02-.14,.02-.21,1.24-1.44,2.18-2.88,2.86-4.36,.49-1.05,.84-2.13,1.08-3.24,.11-.52,.19-1.04,.25-1.58,.35-.41,.63-.88,.86-1.41-.1,.64-.24,1.27-.39,1.9-.68,2.65-1.84,5.12-3.42,7.3Z"/></g></svg>